<svg id="Layer_1" data-name="Layer 1" xmlns="http://www.w3.org/2000/svg" xmlns:xlink="http://www.w3.org/1999/xlink" viewBox="0 0 203.02 54.8"><defs><style>.cls-1,.cls-5{fill:none;}.cls-2{clip-path:url(#clip-path);}.cls-3{fill:url(#Degradado_sin_nombre_3);}.cls-4{clip-path:url(#clip-path-2);}.cls-5{stroke:#fff;stroke-width:0.87px;}.cls-6{fill:#003a79;}.cls-7{fill:#0081c8;}</style><clipPath id="clip-path" transform="translate(0.01 -0.66)"><path class="cls-1" d="M76.28,21.33c0,11.13,10.15,20.15,22.68,20.15s22.68-9,22.68-20.15S111.48,1.17,99,1.17s-22.68,9-22.68,20.16"/></clipPath><radialGradient id="Degradado_sin_nombre_3" cx="189.13" cy="834.83" r="0.95" gradientTransform="matrix(22.7, 0, 0, -22.7, -4194.07, 18969.88)" gradientUnits="userSpaceOnUse"><stop offset="0" stop-color="#fff"/><stop offset="0.16" stop-color="#fff"/><stop offset="0.23" stop-color="#f2f9fc"/><stop offset="0.37" stop-color="#d1eaf5"/><stop offset="0.56" stop-color="#9bd1ea"/><stop offset="0.78" stop-color="#51aedb"/><stop offset="1" stop-color="#0089ca"/></radialGradient><clipPath id="clip-path-2" transform="translate(0.01 -0.66)"><rect class="cls-1" x="-0.01" y="0.46" width="203.02" height="41.58"/></clipPath></defs><title>radio-maria.logo</title><g class="cls-2"><rect class="cls-3" x="76.29" y="0.51" width="45.36" height="40.31"/></g><g class="cls-4"><path class="cls-5" d="M81.35,21.25c0-.12,0-.24,0-.36h-5c0,.12,0,.24,0,.36a18.08,18.08,0,0,0,.58,4.52h4.9A23.13,23.13,0,0,1,81.35,21.25Z" transform="translate(0.01 -0.66)"/><path class="cls-5" d="M81.9,16.27H77a18,18,0,0,0-.69,4.62h5A22.3,22.3,0,0,1,81.9,16.27Z" transform="translate(0.01 -0.66)"/><path class="cls-5" d="M81.81,25.77H76.9a18.83,18.83,0,0,0,2,4.88h4.45A21.38,21.38,0,0,1,81.81,25.77Z" transform="translate(0.01 -0.66)"/><path class="cls-5" d="M83.39,30.65H78.94a20.45,20.45,0,0,0,3.87,4.71h3.59A20.3,20.3,0,0,1,83.39,30.65Z" transform="translate(0.01 -0.66)"/><path class="cls-5" d="M99,1.1A24.25,24.25,0,0,0,83.82,6.28h3.37A16.44,16.44,0,0,1,99,1.1Z" transform="translate(0.01 -0.66)"/><path class="cls-5" d="M114.19,6.28A24.22,24.22,0,0,0,99,1.1a16.44,16.44,0,0,1,11.82,5.19Z" transform="translate(0.01 -0.66)"/><path class="cls-5" d="M86.41,35.36H82.82A24.08,24.08,0,0,0,99,41.41,16.6,16.6,0,0,1,86.41,35.36Z" transform="translate(0.01 -0.66)"/><path class="cls-5" d="M83.64,11.33H79.26A18.5,18.5,0,0,0,77,16.27H81.9A21.17,21.17,0,0,1,83.64,11.33Z" transform="translate(0.01 -0.66)"/><path class="cls-5" d="M87.19,6.28H83.82a20.8,20.8,0,0,0-4.56,5.05h4.38A20,20,0,0,1,87.19,6.28Z" transform="translate(0.01 -0.66)"/><path class="cls-5" d="M114.37,11.33h4.38a20.77,20.77,0,0,0-4.56-5.05h-3.36A20,20,0,0,1,114.37,11.33Z" transform="translate(0.01 -0.66)"/><path class="cls-5" d="M114.62,30.65h4.45a18.6,18.6,0,0,0,2-4.88h-4.9A21.64,21.64,0,0,1,114.62,30.65Z" transform="translate(0.01 -0.66)"/><path class="cls-5" d="M99,41.41a24.09,24.09,0,0,0,16.19-6.05H111.6A16.59,16.59,0,0,1,99,41.41Z" transform="translate(0.01 -0.66)"/><path class="cls-5" d="M116.65,21.25a22.56,22.56,0,0,1-.45,4.52h4.9a17.89,17.89,0,0,0,.58-4.52c0-.12,0-.24,0-.36h-5C116.65,21,116.65,21.13,116.65,21.25Z" transform="translate(0.01 -0.66)"/><path class="cls-5" d="M116.65,20.89h5a18.13,18.13,0,0,0-.69-4.63h-4.87A23,23,0,0,1,116.65,20.89Z" transform="translate(0.01 -0.66)"/><path class="cls-5" d="M111.6,35.36h3.59a20.45,20.45,0,0,0,3.87-4.71h-4.45A20.06,20.06,0,0,1,111.6,35.36Z" transform="translate(0.01 -0.66)"/><path class="cls-5" d="M114.37,11.33a21.79,21.79,0,0,1,1.74,4.94H121a18.61,18.61,0,0,0-2.24-4.94Z" transform="translate(0.01 -0.66)"/><path class="cls-5" d="M83.39,30.65a20.3,20.3,0,0,0,3,4.71h5.36A25.42,25.42,0,0,1,90,30.65Z" transform="translate(0.01 -0.66)"/><path class="cls-5" d="M110.82,6.28h-5a23.79,23.79,0,0,1,2,5.05h6.54A20,20,0,0,0,110.82,6.28Z" transform="translate(0.01 -0.66)"/><path class="cls-5" d="M109.14,20.89h7.51a23,23,0,0,0-.54-4.63h-7.28A37.45,37.45,0,0,1,109.14,20.89Z" transform="translate(0.01 -0.66)"/><path class="cls-5" d="M108.83,16.27h7.29a21.75,21.75,0,0,0-1.74-4.94h-6.54A33.16,33.16,0,0,1,108.83,16.27Z" transform="translate(0.01 -0.66)"/><path class="cls-5" d="M92.22,6.28h-5a20,20,0,0,0-3.55,5.05h6.54A23.7,23.7,0,0,1,92.22,6.28Z" transform="translate(0.01 -0.66)"/><path class="cls-5" d="M108,30.65h6.64a21.64,21.64,0,0,0,1.58-4.88h-7.32A34.3,34.3,0,0,1,108,30.65Z" transform="translate(0.01 -0.66)"/><path class="cls-5" d="M106.24,35.36h5.36a20.07,20.07,0,0,0,3-4.71H108A24.9,24.9,0,0,1,106.24,35.36Z" transform="translate(0.01 -0.66)"/><path class="cls-5" d="M109.14,21.25a40.45,40.45,0,0,1-.26,4.52h7.32a22.68,22.68,0,0,0,.45-4.52c0-.12,0-.24,0-.36h-7.51C109.14,21,109.14,21.13,109.14,21.25Z" transform="translate(0.01 -0.66)"/><path class="cls-5" d="M89.18,16.27H81.9a22.24,22.24,0,0,0-.54,4.62h7.51A38.63,38.63,0,0,1,89.18,16.27Z" transform="translate(0.01 -0.66)"/><path class="cls-5" d="M92.22,6.28C94,3.06,96.4,1.1,99,1.1A16.44,16.44,0,0,0,87.19,6.28Z" transform="translate(0.01 -0.66)"/><path class="cls-5" d="M111.6,35.36h-5.36c-1.84,3.73-4.4,6.05-7.24,6.05A16.59,16.59,0,0,0,111.6,35.36Z" transform="translate(0.01 -0.66)"/><path class="cls-5" d="M90.18,11.33H83.64a21.36,21.36,0,0,0-1.74,4.94h7.28A33.15,33.15,0,0,1,90.18,11.33Z" transform="translate(0.01 -0.66)"/><path class="cls-5" d="M105.79,6.28h5A16.44,16.44,0,0,0,99,1.1C101.62,1.1,104,3.06,105.79,6.28Z" transform="translate(0.01 -0.66)"/><path class="cls-5" d="M89.12,25.77H81.81a21.5,21.5,0,0,0,1.59,4.88H90A34.89,34.89,0,0,1,89.12,25.77Z" transform="translate(0.01 -0.66)"/><path class="cls-5" d="M91.77,35.36H86.41A16.6,16.6,0,0,0,99,41.41C96.17,41.41,93.61,39.09,91.77,35.36Z" transform="translate(0.01 -0.66)"/><path class="cls-5" d="M88.87,21.25c0-.12,0-.24,0-.36H81.36c0,.12,0,.24,0,.36a23.2,23.2,0,0,0,.46,4.52h7.32A38.91,38.91,0,0,1,88.87,21.25Z" transform="translate(0.01 -0.66)"/><path class="cls-5" d="M96,11.33c.19-1.9.43-3.6.7-5.05H92.22a23.69,23.69,0,0,0-2,5.05Z" transform="translate(0.01 -0.66)"/><path class="cls-5" d="M107.83,11.33a23.88,23.88,0,0,0-2-5.05h-4.45c.28,1.45.52,3.15.7,5.05Z" transform="translate(0.01 -0.66)"/><path class="cls-5" d="M95.62,16.27H89.18a38.3,38.3,0,0,0-.31,4.62h6.64C95.52,19.3,95.56,17.75,95.62,16.27Z" transform="translate(0.01 -0.66)"/><path class="cls-5" d="M89.12,25.77A34.89,34.89,0,0,0,90,30.65h5.88c-.14-1.52-.24-3.16-.31-4.88Z" transform="translate(0.01 -0.66)"/><path class="cls-5" d="M102.1,30.65H108a34.3,34.3,0,0,0,.91-4.88h-6.48C102.34,27.5,102.23,29.13,102.1,30.65Z" transform="translate(0.01 -0.66)"/><path class="cls-5" d="M102.39,16.27h6.44a33.4,33.4,0,0,0-1-4.94H102C102.19,12.86,102.32,14.52,102.39,16.27Z" transform="translate(0.01 -0.66)"/><path class="cls-5" d="M96,11.33H90.18a33.15,33.15,0,0,0-1,4.94h6.44C95.7,14.52,95.82,12.86,96,11.33Z" transform="translate(0.01 -0.66)"/><path class="cls-5" d="M102.49,21.25c0,1.56,0,3.07-.09,4.52h6.48a40.26,40.26,0,0,0,.26-4.52c0-.12,0-.24,0-.36h-6.65Z" transform="translate(0.01 -0.66)"/><path class="cls-5" d="M102.49,20.89h6.65a37.61,37.61,0,0,0-.31-4.63h-6.44C102.45,17.75,102.49,19.3,102.49,20.89Z" transform="translate(0.01 -0.66)"/><path class="cls-5" d="M92.22,6.28h4.45C97.29,3.06,98.11,1.1,99,1.1,96.4,1.1,94,3.06,92.22,6.28Z" transform="translate(0.01 -0.66)"/><path class="cls-5" d="M101.34,6.28h4.45C104,3.06,101.62,1.1,99,1.1,99.9,1.1,100.73,3.06,101.34,6.28Z" transform="translate(0.01 -0.66)"/><path class="cls-5" d="M106.24,35.36H101.5c-.63,3.73-1.52,6.05-2.49,6.05C101.84,41.41,104.4,39.09,106.24,35.36Z" transform="translate(0.01 -0.66)"/><path class="cls-5" d="M96.51,35.36H91.77c1.84,3.73,4.4,6.05,7.24,6.05C98,41.41,97.15,39.09,96.51,35.36Z" transform="translate(0.01 -0.66)"/><path class="cls-5" d="M90,30.65a25.42,25.42,0,0,0,1.73,4.71h4.75c-.23-1.39-.44-3-.6-4.71Z" transform="translate(0.01 -0.66)"/><path class="cls-5" d="M102.1,30.65c-.16,1.73-.36,3.32-.6,4.71h4.75A25,25,0,0,0,108,30.65Z" transform="translate(0.01 -0.66)"/><path class="cls-5" d="M95.51,21.25v-.36H88.87c0,.12,0,.24,0,.36a39.1,39.1,0,0,0,.26,4.52H95.6C95.55,24.32,95.51,22.81,95.51,21.25Z" transform="translate(0.01 -0.66)"/><path class="cls-5" d="M102.39,16.27c-.07-1.75-.2-3.41-.35-4.94H96c-.15,1.53-.27,3.18-.34,4.94Z" transform="translate(0.01 -0.66)"/><path class="cls-5" d="M95.51,20.89h7c0-1.6,0-3.15-.11-4.63H95.62C95.55,17.75,95.52,19.3,95.51,20.89Z" transform="translate(0.01 -0.66)"/><path class="cls-5" d="M95.51,21.25c0,1.56,0,3.07.09,4.52h6.8c.06-1.45.09-3,.09-4.52v-.36h-7Z" transform="translate(0.01 -0.66)"/><path class="cls-5" d="M101.5,35.36h-5c.63,3.73,1.52,6.05,2.49,6.05S100.86,39.09,101.5,35.36Z" transform="translate(0.01 -0.66)"/><path class="cls-5" d="M96.67,6.28h4.67C100.73,3.06,99.9,1.1,99,1.1S97.29,3.06,96.67,6.28Z" transform="translate(0.01 -0.66)"/><path class="cls-5" d="M95.61,25.77c.07,1.72.17,3.36.31,4.88h6.18c.14-1.52.24-3.16.31-4.88Z" transform="translate(0.01 -0.66)"/><path class="cls-5" d="M102,11.33c-.18-1.9-.42-3.6-.7-5.05H96.67c-.27,1.45-.51,3.15-.7,5.05Z" transform="translate(0.01 -0.66)"/><path class="cls-5" d="M95.92,30.65c.16,1.73.36,3.32.6,4.71h5c.23-1.39.44-3,.6-4.71Z" transform="translate(0.01 -0.66)"/><path class="cls-6" d="M5.79,20.65c2.6,0,7.26-.1,7.26-4.78,0-4.35-4.06-4.45-5.34-4.45-1.64,0-1.92.23-1.92,1.18Zm6.05.54c3.9.83,3.69,6.2,3.69,6.2.16,3.24,2.73,3.56,2.73,3.56v.93H14.68c-1.34-.22-2.57-2.36-2.57-6S9.6,21.69,9.6,21.69l-3.81.05v6.56c0,2.19.31,2.82,2.79,2.95v.62H0v-.62c2.51-.16,2.64-.85,2.64-3.31V13.78c0-2.42-.47-2.71-2.64-2.94v-.62H8.55c2.76,0,8,.3,7.83,5.33.05,3.4-2.64,4.91-4.49,5.38Z" transform="translate(0.01 -0.66)"/><path class="cls-6" d="M160.14,20c3,0,5.56.13,5.56-4.55,0-4.36-3-4.65-4.44-4.45-1.61.22-1.12.48-1.12,1.43Zm5.82.77c4.44.83,4.2,6.2,4.2,6.2a3.63,3.63,0,0,0,3.1,3.56v.94h-4.08c-2.09.11-4.28-1.81-4.55-5.54s-2-4.22-2-4.22l-2.46.05,0,6.25c0,2.2-.27,2.58,2.3,2.64v.83H153v-.92c2.86-.16,2.52-.57,2.52-3V13.34c0-2.42.08-2.51-2.4-2.73V9.73l9.14,0c3.14,0,8.85.29,8.67,5.33.06,3.4-2.76,4.9-4.87,5.37Z" transform="translate(0.01 -0.66)"/><path class="cls-6" d="M30.61,22.35l-3.15-8.83-3,8.78Zm8,9.59H31.16l0-.93c1.09,0,2,.28,2-.92A8.06,8.06,0,0,0,32.66,28l-1.77-4.65-6.69.06-1.78,5.28A4,4,0,0,0,22.18,30c0,1.36,1.45,1.06,2.07,1.06l-.07.93H18.37l0-.93c.47,0,.92.21,1.45-.41A23.1,23.1,0,0,0,22,26l5-15.84h2.41L36,28.5c.94,2.37.22,2.46,2.74,2.57Z" transform="translate(0.01 -0.66)"/><path class="cls-6" d="M143.66,22.29l-2.57-8.12-2.73,8.18Zm7.39,7.59c.29.54.72.65,1.9.65v.92h-9.5v-.93c1.08,0,2.36.13,2.36-.88a8.34,8.34,0,0,0-.54-2.09l-1.18-3.68h-6l-1.34,4.5a2.82,2.82,0,0,0-.13,1.07c0,1.31,1.93,1.14,2.54,1.14v.87h-6.78v-.93c.47,0,.52.21,1-.4a23.39,23.39,0,0,0,2.14-4.61l5-15.84h4.09l5.47,17.25Z" transform="translate(0.01 -0.66)"/><path class="cls-6" d="M193.72,22.29l-2.57-8.12-2.72,8.18Zm7.39,7.59c.29.54.72.65,1.9.65v.92H193.5v-.93c1.08,0,2.36.13,2.36-.88a8.45,8.45,0,0,0-.54-2.09l-1.18-3.68h-6l-1.34,4.5a2.81,2.81,0,0,0-.13,1.07c0,1.31,1.92,1.14,2.54,1.14v.87h-6.78v-.93c.47,0,.52.21,1.05-.4a23.58,23.58,0,0,0,2.14-4.61l5-15.84h4.09l5.48,17.25Z" transform="translate(0.01 -0.66)"/><path class="cls-6" d="M44.3,11.38l-.06,1.37.06,16.35c0,1.12.79,1.64,2.32,1.64,2,0,9.86,0,9.86-9.52,0-2.75-.47-5.77-2.4-7.69-1.53-1.41-2.35-2.19-8-2.19ZM38.74,31.07c2.42-.13,2.73-.41,2.73-2.7V13.84c0-2.42-.35-2.75-2.8-2.95v-.62h8.59c9.45-.11,12.66,3.07,12.7,10.9,0,5.23-2.07,10.77-12.25,10.77h-9Z" transform="translate(0.01 -0.66)"/><path class="cls-6" d="M60.38,31.13c2.54-.06,2.9-.38,2.9-2.71V13.86c0-2.43-.42-2.82-2.9-3v-.62h8.87v.62c-2.18.1-2.93.33-2.93,3V28.42c0,2.56.72,2.59,2.93,2.66V32H60.38Z" transform="translate(0.01 -0.66)"/><path class="cls-6" d="M173.24,30.58c2,0,2.22-.38,2.22-2.7V13.31c0-2.43.35-2.7-2.49-2.7V9.74h9.52l.05,1c-2.62,0-2.42,0-2.42,2.6V27.88c0,2.56.62,2.66,2.18,2.66v.92h-9" transform="translate(0.01 -0.66)"/><path class="cls-6" d="M87.36,20.8c0-7.4-3.51-10-6.74-10s-6.74,2.63-6.74,10c0,7.15,3.23,10,6.74,10s6.74-2.89,6.74-10m-17.09,0c0-7.47,5.16-11.24,10.35-11.24S91,13.36,91,20.83C91,27.75,86.34,32,80.61,32S70.26,27.75,70.26,20.83" transform="translate(0.01 -0.66)"/><path class="cls-6" d="M132.81,10.62c-2,.16-2.75-.22-2.75,2.41V27.82c0,2.56.24,2.47,2.27,2.6v1H123v-1c2.47-.13,2.25-.5,2.25-3.24l-.06-12.56V13.42l-6.25,17.39h-2L110.4,13.27h-.07V26.56c0,3.43.67,4.16,3,4.26v.64h-7.44l0-1.08c2.4-.17,2.57-.3,2.57-3.9V13c0-2.6-.22-2.28-2.57-2.41l0-1.22H114l5.45,14.44,4.92-14.44h8.4Z" transform="translate(0.01 -0.66)"/></g><path class="cls-7" d="M67.77,54.8a6,6,0,0,1-.94.4,5.22,5.22,0,0,1-.86.19,7.34,7.34,0,0,1-1,.06,3.8,3.8,0,0,1-3.18-1.29,5.06,5.06,0,0,1-1-3.23,5,5,0,0,1,1-3.25,3.92,3.92,0,0,1,3.21-1.27,11.67,11.67,0,0,1,2.7.38v1.15A13.56,13.56,0,0,0,66,47.42a5.76,5.76,0,0,0-.93-.08,2.49,2.49,0,0,0-2.24,1A4.55,4.55,0,0,0,62.1,51a3.93,3.93,0,0,0,.8,2.57,2.76,2.76,0,0,0,2.26,1,4.61,4.61,0,0,0,.81-.07,5.12,5.12,0,0,0,.8-.22,7.36,7.36,0,0,0,1-.46Z" transform="translate(0.01 -0.66)"/><path class="cls-7" d="M76,55.46a4,4,0,0,1-2.13-.55,3.62,3.62,0,0,1-1.4-1.6,5.49,5.49,0,0,1-.5-2.38,5.6,5.6,0,0,1,.47-2.33A3.58,3.58,0,0,1,73.88,47a4.35,4.35,0,0,1,4.3,0,3.57,3.57,0,0,1,1.4,1.62,6,6,0,0,1,0,4.65,3.61,3.61,0,0,1-1.38,1.62A4,4,0,0,1,76,55.46Zm0-.91a2.35,2.35,0,0,0,2-1,4.38,4.38,0,0,0,.71-2.65A4.31,4.31,0,0,0,78,48.3a2.58,2.58,0,0,0-4,0,4.31,4.31,0,0,0-.72,2.63A4.39,4.39,0,0,0,74,53.58,2.35,2.35,0,0,0,76,54.55Z" transform="translate(0.01 -0.66)"/><path class="cls-7" d="M84.73,55.25V46.64h1.22v7.69h3.82v.91Z" transform="translate(0.01 -0.66)"/><path class="cls-7" d="M97.56,55.46a4,4,0,0,1-2.12-.55,3.62,3.62,0,0,1-1.4-1.6,5.5,5.5,0,0,1-.5-2.38A5.6,5.6,0,0,1,94,48.61,3.58,3.58,0,0,1,95.41,47a4.35,4.35,0,0,1,4.3,0,3.58,3.58,0,0,1,1.4,1.62,6,6,0,0,1,0,4.65,3.61,3.61,0,0,1-1.38,1.62A4,4,0,0,1,97.56,55.46Zm0-.91a2.35,2.35,0,0,0,2-1,4.39,4.39,0,0,0,.71-2.65,4.31,4.31,0,0,0-.72-2.63,2.58,2.58,0,0,0-4,0,4.31,4.31,0,0,0-.72,2.63,4.39,4.39,0,0,0,.71,2.65A2.35,2.35,0,0,0,97.56,54.55Z" transform="translate(0.01 -0.66)"/><path class="cls-7" d="M106.26,55.25V46.64H108l2.39,6.66,2.46-6.66h1.51v8.61h-1.14v-7l-2.38,6.43h-1.17l-2.31-6.44v7Z" transform="translate(0.01 -0.66)"/><path class="cls-7" d="M119.49,55.25V46.64h2.25a3,3,0,0,1,2.08.56,1.75,1.75,0,0,1,.61,1.33,2.25,2.25,0,0,1-.41,1.25,2.71,2.71,0,0,1-1.37,1,3.93,3.93,0,0,1,1.26.58,2.26,2.26,0,0,1,.64.79,2.16,2.16,0,0,1,.23,1,2.13,2.13,0,0,1-.31,1.12,2,2,0,0,1-.82.78,3.71,3.71,0,0,1-1.6.26Zm1.21-4.83h.4a2.29,2.29,0,0,0,1.58-.46,1.49,1.49,0,0,0,.5-1.15,1.08,1.08,0,0,0-.45-.93,2.74,2.74,0,0,0-1.55-.32h-.48Zm0,3.91h.25a6.28,6.28,0,0,0,1.7-.14,1.19,1.19,0,0,0,.61-.47,1.32,1.32,0,0,0,.22-.74,1.54,1.54,0,0,0-.69-1.26,2.81,2.81,0,0,0-1.74-.52h-.35Z" transform="translate(0.01 -0.66)"/><path class="cls-7" d="M129.3,55.25V46.64h1.22v8.61Z" transform="translate(0.01 -0.66)"/><path class="cls-7" d="M134.69,55.25l3.42-8.61h1.21l3.37,8.61h-1.32l-.94-2.38h-3.65l-.95,2.38Zm2.44-3.3h2.93l-1.46-3.71Z" transform="translate(0.01 -0.66)"/></svg>